<?xml version="1.0" standalone="no"?>
<!DOCTYPE svg PUBLIC "-//W3C//DTD SVG 20010904//EN"
 "http://www.w3.org/TR/2001/REC-SVG-20010904/DTD/svg10.dtd">
<svg version="1.0" xmlns="http://www.w3.org/2000/svg"
 width="640.000000pt" height="1136.000000pt" viewBox="0 0 640.000000 1136.000000"
 preserveAspectRatio="xMidYMid meet">
<metadata>
Created by potrace 1.15, written by Peter Selinger 2001-2017
</metadata>
<g transform="translate(0.000000,1136.000000) scale(0.100000,-0.100000)"
fill="#000000" stroke="none">
<path d="M0 5780 l0 -2619 28 4 c15 3 67 12 115 20 99 17 240 61 319 101 74
37 189 125 231 176 47 58 95 146 121 221 l21 62 2358 3 c1407 1 2365 -2 2375
-7 10 -5 23 -26 31 -48 67 -194 187 -325 381 -417 113 -53 311 -106 398 -106
l22 0 0 2615 c0 1438 -3 2615 -7 2615 -25 0 -321 -106 -421 -151 -35 -16 -68
-29 -73 -29 -5 0 -17 -4 -27 -10 -9 -5 -87 -44 -172 -86 -85 -42 -168 -84
-185 -94 -69 -43 -138 -62 -220 -62 -75 0 -89 4 -230 62 -163 67 -323 128
-370 140 -16 4 -57 17 -90 28 -167 57 -456 123 -675 156 -234 36 -329 41 -715
41 -375 0 -446 -4 -675 -36 -207 -29 -466 -82 -610 -124 -296 -86 -420 -131
-660 -241 -88 -41 -115 -48 -165 -48 -54 0 -68 4 -135 45 -63 39 -342 179
-354 179 -3 0 -33 13 -68 29 -135 61 -512 201 -543 201 -3 0 -5 -1179 -5
-2620z m1890 530 c130 -20 211 -46 310 -98 106 -57 132 -76 223 -162 323 -305
398 -780 186 -1169 -94 -172 -255 -320 -446 -408 -79 -36 -95 -42 -213 -69
-79 -18 -273 -20 -362 -4 -361 67 -663 345 -758 698 -48 184 -47 345 7 522 30
103 58 160 129 265 210 314 570 479 924 425z m2920 -4 c198 -33 355 -113 507
-259 202 -194 303 -424 303 -689 0 -214 -42 -353 -167 -556 -34 -55 -130 -159
-191 -205 -81 -62 -206 -132 -282 -158 -210 -70 -492 -66 -675 11 -83 35 -106
47 -180 95 -177 114 -337 325 -389 515 -10 36 -23 79 -30 95 -6 18 -11 94 -11
190 1 135 4 173 23 240 80 283 264 505 527 638 169 86 369 115 565 83z m-1470
-2137 c169 -18 278 -48 311 -86 9 -10 22 -35 28 -55 7 -21 17 -40 22 -44 6 -4
6 -11 -2 -20 -9 -12 -82 -14 -428 -14 -229 0 -446 3 -483 7 -78 7 -81 13 -45
83 37 75 99 99 317 124 152 18 158 18 280 5z"/>
<path d="M1701 5512 c-78 -78 -125 -442 -87 -673 36 -217 76 -299 145 -299 63
0 98 51 137 196 15 57 18 108 19 294 0 252 -13 337 -67 441 -24 46 -36 58 -60
63 -49 10 -58 7 -87 -22z"/>
<path d="M4614 5531 c-35 -15 -74 -116 -103 -271 -44 -236 5 -629 87 -697 35
-30 83 -30 116 0 57 49 106 266 106 468 0 204 -46 429 -98 482 -21 21 -78 30
-108 18z"/>
</g>
</svg>
